<?xml version="1.0" encoding="UTF-8"?>
<!DOCTYPE svg PUBLIC "-//W3C//DTD SVG 1.1//EN" "http://www.w3.org/Graphics/SVG/1.1/DTD/svg11.dtd">
<!-- Creator: CorelDRAW X7 -->
<svg xmlns="http://www.w3.org/2000/svg" xml:space="preserve" width="8.26772in" height="11.6929in" version="1.1" style="shape-rendering:geometricPrecision; text-rendering:geometricPrecision; image-rendering:optimizeQuality; fill-rule:evenodd; clip-rule:evenodd"
viewBox="0 0 8268 11693"
 xmlns:xlink="http://www.w3.org/1999/xlink">
 <defs>
  <style type="text/css">
   <![CDATA[
    .fil0 {fill:none}
   ]]>
  </style>
   <clipPath id="id0">
    <path d="M1532 4836c575,0 1042,466 1042,1041 0,575 -467,1041 -1042,1041 -575,0 -1041,-466 -1041,-1041 0,-575 466,-1041 1041,-1041z"/>
   </clipPath>
    <clipPath id="id1">
     <path d="M1532 4836c575,0 1042,466 1042,1041 0,575 -467,1041 -1042,1041 -575,0 -1041,-466 -1041,-1041 0,-575 466,-1041 1041,-1041z"/>
    </clipPath>
    <clipPath id="id2">
     <path d="M1532 4836c575,0 1042,466 1042,1041 0,575 -467,1041 -1042,1041 -575,0 -1041,-466 -1041,-1041 0,-575 466,-1041 1041,-1041z"/>
    </clipPath>
 </defs>
 <g id="Layer_x0020_1">
  <metadata id="CorelCorpID_0Corel-Layer"/>
  <g>
  </g>
  <g style="clip-path:url(#id0)">
   <g>
   </g>
   <g style="clip-path:url(#id1)">
    <image x="491" y="4835" width="2083" height="2083" xlink:href="Gabselina_logo_Images\Gabselina_logo_ImgID1.png"/>
   </g>
   <g style="clip-path:url(#id2)">
   </g>
  </g>
  <path class="fil0" d="M1532 4836c575,0 1042,466 1042,1041 0,575 -467,1041 -1042,1041 -575,0 -1041,-466 -1041,-1041 0,-575 466,-1041 1041,-1041z"/>
 </g>
</svg>
